# xmcd
#
# Track frame offsets: 
#        150
#        10252
#        19717
#        30957
#        40210
#        51532
#        62590
#        73742
#        83060
#        93267
#        104045
#        117392
#        128482
#        138292
#        147482
#        158870
#        168442
#        178990
#        191175
#        199662
#        211332
#        221532
#        234335
#        247242
#        259132
#        270957
#        282977
#        293590
#        304910
#        314592
#
# Disc length: 4343 seconds
#
# Revision: 1
# Processed by: cddbd v1.5.2PL0 Copyright (c) Steve Scherf et al.
# Submitted via: ExactAudioCopy v0.95b4
#
DISCID=c310f51e
DTITLE=Gordon Terry - Lotta,Lotta Women
DYEAR=1995
DGENRE=
TTITLE0=A Lotta Lotta Women
TTITLE1=It Ain`t Right
TTITLE2=I Had A Talk With Me
TTITLE3=Trouble On The Turnpike
TTITLE4=Queen Of The Seasons
TTITLE5=Gonna Go Down The River
TTITLE6=Lonely Road
TTITLE7=Honky Tonk Man
TTITLE8=You Remembered Me
TTITLE9=Revenooer Man
TTITLE10=Long Black Limousine
TTITLE11=Wild Desire
TTITLE12=Little Ole You
TTITLE13=How My Baby Can Love
TTITLE14=Fortune Of Love
TTITLE15=Slow Down Old World
TTITLE16=For Old Time´s Sake
TTITLE17=You´ll Regret
TTITLE18=Hook, Line And Sinker
TTITLE19=Maybe
TTITLE20=Keep Right On Talking
TTITLE21=And Then  I Heard The Bad News
TTITLE22=I Don`t Hurt Anymore
TTITLE23=The Saddest Day
TTITLE24=All By My Lonesome
TTITLE25=Battle Of New Orleans (new words)
TTITLE26=The Fifty Stars
TTITLE27=When They Ring Those Wedding Bells
TTITLE28=Almost Alone
TTITLE29=Fortune Of Love (with chorus)
EXTD=
EXTT0=
EXTT1=
EXTT2=
EXTT3=
EXTT4=
EXTT5=
EXTT6=
EXTT7=
EXTT8=
EXTT9=
EXTT10=
EXTT11=
EXTT12=
EXTT13=
EXTT14=
EXTT15=
EXTT16=
EXTT17=
EXTT18=
EXTT19=
EXTT20=
EXTT21=
EXTT22=
EXTT23=
EXTT24=
EXTT25=
EXTT26=
EXTT27=
EXTT28=
EXTT29=
PLAYORDER=
